<mxfile host="app.diagrams.net" modified="2024-01-08T19:19:36.153Z" agent="Mozilla/5.0 (Windows NT 10.0; Win64; x64; rv:121.0) Gecko/20100101 Firefox/121.0" etag="IL1c7591oO-6aZPSEQLR" version="22.1.16" type="github">
  <diagram name="Page-1" id="Mh-8VSOMWzJSXaQSpLRG">
    <mxGraphModel dx="1434" dy="754" grid="1" gridSize="10" guides="1" tooltips="1" connect="1" arrows="1" fold="1" page="1" pageScale="1" pageWidth="827" pageHeight="1169" math="0" shadow="0">
      <root>
        <mxCell id="0" />
        <mxCell id="1" parent="0" />
        <mxCell id="7JPnDVqfVdsdIesFL2e--3" value="" style="edgeStyle=orthogonalEdgeStyle;rounded=0;orthogonalLoop=1;jettySize=auto;html=1;fillColor=#f8cecc;strokeColor=#b85450;" parent="1" source="7JPnDVqfVdsdIesFL2e--1" target="7JPnDVqfVdsdIesFL2e--2" edge="1">
          <mxGeometry relative="1" as="geometry" />
        </mxCell>
        <mxCell id="7JPnDVqfVdsdIesFL2e--1" value="RFP-1364" style="ellipse;whiteSpace=wrap;html=1;aspect=fixed;fillColor=#e1d5e7;strokeColor=#9673a6;fontFamily=Lucida Console;" parent="1" vertex="1">
          <mxGeometry x="370" y="350" width="80" height="80" as="geometry" />
        </mxCell>
        <mxCell id="7JPnDVqfVdsdIesFL2e--5" value="" style="edgeStyle=orthogonalEdgeStyle;rounded=0;orthogonalLoop=1;jettySize=auto;html=1;" parent="1" source="7JPnDVqfVdsdIesFL2e--2" target="7JPnDVqfVdsdIesFL2e--4" edge="1">
          <mxGeometry relative="1" as="geometry" />
        </mxCell>
        <mxCell id="7JPnDVqfVdsdIesFL2e--2" value="Finish an iFood selling, generate NFCe" style="whiteSpace=wrap;html=1;fontFamily=Lucida Console;fillColor=#f8cecc;strokeColor=#b85450;" parent="1" vertex="1">
          <mxGeometry x="190" y="360" width="120" height="60" as="geometry" />
        </mxCell>
        <mxCell id="7JPnDVqfVdsdIesFL2e--7" value="" style="edgeStyle=orthogonalEdgeStyle;rounded=0;orthogonalLoop=1;jettySize=auto;html=1;" parent="1" source="7JPnDVqfVdsdIesFL2e--4" target="7JPnDVqfVdsdIesFL2e--6" edge="1">
          <mxGeometry relative="1" as="geometry" />
        </mxCell>
        <mxCell id="7JPnDVqfVdsdIesFL2e--4" value="Must debt from product stock the quantity sold" style="whiteSpace=wrap;html=1;fontFamily=Lucida Console;fillColor=#f8cecc;strokeColor=#b85450;" parent="1" vertex="1">
          <mxGeometry x="190" y="220" width="120" height="60" as="geometry" />
        </mxCell>
        <mxCell id="7JPnDVqfVdsdIesFL2e--6" value="Must have a line on product stock change history for that sell" style="whiteSpace=wrap;html=1;fontFamily=Lucida Console;fillColor=#f8cecc;strokeColor=#b85450;" parent="1" vertex="1">
          <mxGeometry x="390" y="220" width="120" height="60" as="geometry" />
        </mxCell>
      </root>
    </mxGraphModel>
  </diagram>
</mxfile>
